PathFileType	4	(X/Y/Z)	Patient4_TMGait_0pt2_03_right_26.trc.trc
DataRate	CameraRate	NumFrames	NumMarkers	Units	OrigDataRate	OrigDataStartFrame	OrigNumFrames
44.585987261146	44.585987261146	6	33	mm	44.585987261146	36	       141
Frame#	Time	Sacral			L.Shoulder			Chest			R.Shoulder			Neck			R.ASIS			L.ASIS			R.Thigh.Superior			R.Thigh.Lateral			R.Thigh.Inferior			R.Patella			L.Thigh.Superior			L.Thigh.Lateral			L.Thigh.Inferior			L.Patella			L.Shank.Superior			L.Shank.Lateral			L.Shank.Inferior			R.Shank.Superior			R.Shank.Lateral			R.Shank.Inferior			R.Heel			R.Midfoot.Superior			R.Midfoot.Lateral			R.Toe			L.Heel			L.Midfoot.Lateral			L.Midfoot.Superior			L.Toe			L.Elbow			L.Wrist			R.Elbow			R.Wrist			
		X1	Y1	Z1	X2	Y2	Z2	X3	Y3	Z3	X4	Y4	Z4	X5	Y5	Z5	X6	Y6	Z6	X7	Y7	Z7	X8	Y8	Z8	X9	Y9	Z9	X10	Y10	Z10	X11	Y11	Z11	X12	Y12	Z12	X13	Y13	Z13	X14	Y14	Z14	X15	Y15	Z15	X16	Y16	Z16	X17	Y17	Z17	X18	Y18	Z18	X19	Y19	Z19	X20	Y20	Z20	X21	Y21	Z21	X22	Y22	Z22	X23	Y23	Z23	X24	Y24	Z24	X25	Y25	Z25	X26	Y26	Z26	X27	Y27	Z27	X28	Y28	Z28	X29	Y29	Z29	X30	Y30	Z30	X31	Y31	Z31	X32	Y32	Z32	X33	Y33	Z33	

36	56.035000000000	938.258504679806	1011.839456255626	439.906191144411	1183.154039783805	1431.328870533910	311.117272557632	1228.407702774951	1359.422882515347	493.578331251206	1103.413493088451	1443.897227484094	633.209946597102	1117.845085538955	1494.442206759183	454.765749312457	1139.334981341569	940.543871801417	602.288194476949	1192.158932782313	970.616626526283	334.968509085734	1197.779806629395	746.206913180259	572.567380048956	1122.070052309405	634.219851356028	631.847621189964	1206.568176143366	584.242838624401	556.791116482959	1216.383705599946	498.073469688391	567.467665814936	1172.126135708943	729.531917046123	346.695163720454	1054.144536948412	628.078314005283	265.807296829109	1122.397344427104	540.397333407875	333.341908545916	1108.486503248494	471.742752635310	336.550160382670	1066.982222904378	408.616949531440	323.643990149425	957.190528034440	316.845354151629	264.981779295925	983.405694587784	193.047469220031	328.922428415545	1189.560968998716	408.473404836450	579.212821636308	1121.694755096449	307.868169621960	650.054644039445	1164.098410345430	209.269857994869	592.535317136805	1031.960181823855	44.002735166679	581.298429757427	1204.337138568196	97.801634710379	605.657897495799	1119.850702815522	37.607279838764	649.858249143581	1326.461380689025	47.441052744941	627.247658943309	830.761110653083	52.383840160154	362.201680569454	905.711194656715	42.725137408491	283.953216728753	992.770485132778	98.207766878347	311.077537423304	1117.078957537486	38.668506956846	283.810861661355	1343.082162529037	1151.429318435348	158.950858976476	1602.237725380610	1141.884995078461	196.444561883547	919.040317857643	1147.598109658205	715.982824499101	916.163968917732	883.977508199190	709.712475833960	
37	56.057428571429	939.536197194641	1013.229261276942	448.011739555733	1183.524672764561	1432.165512364762	316.177576383676	1230.930317808972	1360.215167957678	498.057411677456	1107.618829695892	1444.777572969230	639.249584715488	1120.054266049683	1495.458432413390	460.535661682620	1142.207634922222	941.387414483891	608.038753478017	1191.984611037005	971.128034461683	339.982911607952	1198.240372875465	745.934317185836	577.288183435991	1121.510475281488	634.435795026856	636.353334278806	1204.859703457483	583.922683028336	560.479006533163	1213.977526440714	497.689225989729	570.368960163608	1171.154353900598	730.193026085494	350.521987663592	1051.862736967263	629.948477963785	269.718645387031	1120.981611517098	541.220215866987	335.344976775422	1107.091213961348	472.419179415447	337.869859066439	1064.885949728494	409.951495002412	324.932686402567	953.760119483609	319.370854346118	266.728160716906	980.283587261937	194.554178221240	328.880509033788	1186.764481510466	408.345558143357	581.513825868072	1118.765906676116	307.517520658090	651.740016988225	1160.488782041753	209.164302680596	593.293495530098	1027.632753426841	44.176476580346	581.251696526637	1200.080449423682	97.692641951105	605.710646879447	1115.480753417339	37.674761341506	649.807177322218	1322.150682275612	46.947077929047	627.371653996482	826.812120789257	54.733799579561	361.948287518471	901.674032852345	43.679771610575	283.809345153907	989.415619688738	98.519609243509	310.458583575711	1112.928727992120	38.477765918178	283.684895831488	1335.033890779078	1145.417838142253	164.949589019206	1594.144558460579	1123.914588864808	199.424592616910	923.982249830528	1148.824698169472	725.559509398612	922.865376594610	885.292222366385	720.510284776273	
38	56.079857142857	940.805272445253	1014.627884188574	456.232673132401	1183.603994293909	1433.034830117746	321.155876246558	1233.357151554136	1361.102376283978	502.408385429273	1111.828776190662	1445.706026331481	645.256219421159	1122.115624166750	1496.515681241607	466.261448296754	1145.094679973144	942.186895958657	613.757991089469	1187.910830869711	968.579969076436	343.750792102363	1198.630883922109	745.593668850190	582.081640168369	1120.812779764834	634.612595306852	640.920886429934	1203.042740589702	583.584388653660	564.294759040931	1211.395399384158	497.317152805584	573.450561155966	1170.581595204949	731.062318430902	354.333941736419	1050.183950035787	631.736143838324	273.651885994532	1120.483128511639	542.072223684205	337.271922417560	1106.689808552265	472.960415997993	339.022001818976	1063.543891214068	411.207475957670	326.138760971714	950.903146676160	322.054787619358	268.455004808524	977.540502594636	196.171325532102	328.749943662025	1183.810617942495	408.234348153773	583.965097553368	1115.617610643139	307.165438946334	653.470767978990	1156.781565134730	209.085933243090	594.138675049762	1023.245795459587	44.354135089502	581.183545609337	1195.771447220119	97.575333129564	605.759538209716	1111.050120319392	37.739261337009	649.731622322039	1317.770793836466	46.442407803253	627.487968331669	822.963032422747	57.491427074319	361.625013287153	897.661826292198	44.785262668535	283.603497581362	986.221750756258	98.827710643516	309.702267349487	1108.728564063702	38.275365928836	283.555166352306	1325.420789877621	1138.992963390602	171.051504872747	1583.475091139396	1103.546614221291	202.319502618055	929.519581541469	1149.674996296219	735.281414248770	930.830559736862	886.265690842716	731.477742584685	
39	56.102285714286	942.018932040225	1015.976072846722	464.557750270365	1183.375940263528	1433.852599317764	326.042918688570	1235.651562040082	1362.012355498316	506.626809128551	1116.006731246056	1446.625444686290	651.197599566039	1124.011437891197	1497.549014429784	471.914282168339	1147.947570697950	942.890190628063	619.443953432615	1178.569467505457	961.847682794685	345.866352679868	1199.044640956530	745.219643832357	586.897580883439	1120.178328732992	634.726313287652	645.512964689521	1201.346471470212	583.243485533000	568.183905119498	1208.907731584882	496.926928358424	576.670479409683	1170.494140163006	732.140047802675	358.118859549441	1049.292296784132	633.350308791554	277.589544839123	1121.140352976787	542.933400646283	339.143748113505	1107.534669995667	473.314697974657	340.018490165855	1063.191046396391	412.327587127666	327.283643428421	948.844406871493	324.919859338239	270.158215271982	975.296495719255	197.940244127214	328.560675924593	1180.915939659725	408.105047258131	586.527141724442	1112.430885017426	306.813738129377	655.242167139846	1153.075093551772	209.010590242534	595.048062059261	1018.817222002100	44.541002871969	581.099301320835	1191.427663164656	97.459183883143	605.807619503840	1106.578392988731	37.805165254182	649.637306727136	1313.343726265686	45.940648405121	627.599304594910	819.267755273542	60.857806535364	361.249414243447	893.687879575321	46.207579980328	283.350571418333	983.219637328037	99.197455714706	308.835707167285	1104.422257367255	38.034626160849	283.431229942058	1314.312494971806	1132.277250175012	177.266081629356	1569.904517993341	1080.901149798291	205.172239025256	935.767386815535	1149.984978684301	745.098819554383	940.279642662515	886.747918016316	742.531739557637	
40	56.124714285714	943.115275820650	1017.191804149708	472.981595197196	1182.816943707326	1434.512046503884	330.827310725193	1237.774142408557	1362.841295827641	510.701322328637	1120.130269106267	1447.453628540856	657.041164852495	1125.725631298572	1498.470166639359	477.465706942498	1150.714152399127	943.430888661482	625.089685775725	1162.979607972007	950.123247970716	346.050169050169	1199.578282183835	744.834132612818	591.677131636394	1119.812784587481	634.735063004180	650.081096628256	1200.005323677595	582.901834693882	572.077020094714	1206.797620130276	496.471629316126	579.965120935925	1170.981274432382	733.427294170848	361.860528500991	1049.404693945531	634.695180692119	281.513101390769	1123.226936188539	543.796468630343	340.993294745029	1109.923601240666	473.446271523820	340.890704547601	1064.113083088760	413.258114476775	328.404872889717	947.864921368810	328.007441851593	271.840533045177	973.700406441855	199.929707210150	328.360846422034	1178.305350941077	407.907330778877	589.143882125832	1109.398006445196	306.453168660761	657.037852907500	1149.470413228754	208.905634243884	595.990719587213	1014.366141454543	44.741193164420	581.005300085277	1187.068233992462	97.350772390578	605.857075215802	1102.085802994915	37.875910503964	649.531009923777	1308.892049104753	45.449691322120	627.707107419589	815.811318824749	65.107695191894	360.854583953092	889.788516135382	48.186371094363	283.079032807295	980.457705017718	99.738472621376	307.909028860565	1099.954898243091	37.723992389890	283.327084023940	1301.818828162160	1125.382833418482	183.607473444011	1553.134938807565	1056.209500095020	208.026054209769	942.856784009937	1149.588567086923	754.961299625189	951.415888569909	886.592869506286	753.570194416896	
41	56.147142857143	944.021570394845	1018.168753495167	481.498756630229	1181.893741488989	1434.889648341299	335.495101108455	1239.680533445569	1363.456853829029	514.611667045307	1124.187380011749	1448.082367793218	662.753820480469	1127.240084512986	1499.169137109567	482.889683087309	1153.342117392947	943.729521337868	630.678315877764	1140.940115821892	933.234493168638	344.270545052778	1200.323892743830	744.439334848959	596.352636082026	1119.910589219181	634.577132995863	654.563578078047	1199.240786106172	582.544252377610	575.889325756924	1205.338298102022	495.889224021305	583.248168254005	1172.131864645082	734.925124099152	365.551559145317	1050.769865330021	635.678394419017	285.407069959932	1127.037358711084	544.671590746794	342.873176230653	1114.186468328913	473.343639045812	341.697052259479	1066.633852591816	413.955374503715	329.558957614355	948.291333708261	331.376610375530	273.515220294687	972.926285573183	202.234692031282	328.218712019682	1176.194253925632	407.575660099767	591.743197243925	1106.706191138232	306.061726208156	658.826932070205	1146.061990135751	208.729742107350	596.928242648596	1009.909066634038	44.955329171783	580.908651957934	1182.709605442497	97.253011664799	605.908382635450	1097.589607030517	37.952818527056	649.420565435476	1304.435189826964	44.972893436064	627.811737082002	812.714516113866	70.570523832681	360.490964286225	886.031960439539	51.023535772702	282.832354285670	978.007441303497	100.605077084602	306.996084810536	1095.287525204745	37.313736648980	283.261326247302	1288.070843000166	1118.397935164021	190.090996825276	1532.913748694660	1029.821267472839	210.922600398292	950.926647857434	1148.325424357651	764.816989160529	964.426766721185	885.669551742380	764.483138610894	
